<svg xmlns="http://www.w3.org/2000/svg" width="1197" height="332" fill="none">
    <path fill="#40B3E1" fill-opacity=".25" d="M0 0h1197v332H0z"/>
    <path fill="#16769C"
          d="M490.532 135.984c10.012 0 17.465 3.015 22.357 9.045 4.893 5.917 7.339 14.962 7.339 27.136v36.864c0 4.324-1.365 7.737-4.096 10.24s-6.428 3.755-11.093 3.755-8.363-1.252-11.094-3.755c-2.73-2.503-4.096-5.916-4.096-10.24v-35.498c0-5.007-.91-8.647-2.73-10.923-1.707-2.276-4.324-3.413-7.851-3.413-4.551 0-8.192 1.479-10.923 4.437-2.617 2.844-3.925 6.713-3.925 11.605v33.792c0 4.324-1.365 7.737-4.096 10.24s-6.428 3.755-11.093 3.755-8.363-1.252-11.094-3.755c-2.73-2.503-4.096-5.916-4.096-10.24v-59.05c0-3.983 1.423-7.225 4.267-9.728 2.844-2.617 6.542-3.926 11.093-3.926 4.324 0 7.737 1.195 10.24 3.584 2.617 2.39 3.926 5.519 3.926 9.387 2.958-4.324 6.769-7.623 11.434-9.899 4.665-2.275 9.842-3.413 15.531-3.413zm115.109 59.051c2.617 0 4.722 1.024 6.315 3.072 1.707 2.048 2.56 4.721 2.56 8.021 0 4.551-2.219 8.021-6.656 10.411-3.868 1.934-8.476 3.584-13.824 4.949-5.234 1.252-10.069 1.877-14.507 1.877-9.329 0-17.465-1.763-24.405-5.29-6.94-3.527-12.288-8.591-16.043-15.19-3.754-6.599-5.632-14.336-5.632-23.21 0-8.42 1.764-15.929 5.291-22.528 3.641-6.713 8.647-11.89 15.019-15.531 6.485-3.755 13.767-5.632 21.845-5.632 7.851 0 14.734 1.707 20.651 5.12 5.916 3.413 10.467 8.249 13.653 14.507 3.3 6.257 4.949 13.596 4.949 22.016 0 2.617-.625 4.665-1.877 6.144-1.138 1.365-2.844 2.048-5.12 2.048h-45.056c.796 5.461 2.56 9.386 5.291 11.776 2.73 2.389 6.769 3.584 12.117 3.584 2.844 0 5.461-.285 7.851-.854 2.389-.682 5.063-1.593 8.021-2.73a51.216 51.216 0 014.949-1.707c1.707-.569 3.243-.853 4.608-.853zm-29.184-38.571c-3.982 0-7.168 1.308-9.557 3.925-2.389 2.503-3.812 6.201-4.267 11.094h26.795c-.683-10.013-5.006-15.019-12.971-15.019zm85.36 66.901c-7.623 0-14.051-.569-19.285-1.706-5.234-1.138-9.842-2.959-13.824-5.462-1.593-.796-2.844-2.161-3.755-4.096-.91-1.934-1.365-4.096-1.365-6.485 0-3.072.796-5.575 2.389-7.509 1.707-2.048 3.812-3.072 6.315-3.072 1.707 0 3.3.227 4.779.682 1.479.342 3.299.967 5.461 1.878 3.641 1.251 6.827 2.218 9.557 2.901 2.845.683 6.429 1.024 10.752 1.024 3.072 0 5.462-.398 7.168-1.195 1.821-.91 2.731-2.161 2.731-3.754 0-1.252-.455-2.219-1.365-2.902-.797-.682-2.39-1.308-4.779-1.877-2.389-.683-6.428-1.593-12.117-2.731-10.127-1.934-17.465-4.835-22.016-8.704-4.438-3.982-6.656-9.557-6.656-16.725 0-5.234 1.593-9.956 4.778-14.165 3.3-4.21 7.794-7.51 13.483-9.899 5.689-2.389 12.06-3.584 19.115-3.584 5.12 0 10.069.626 14.848 1.877 4.892 1.252 9.216 3.015 12.97 5.291 3.527 2.048 5.291 5.348 5.291 9.899 0 3.185-.853 5.859-2.56 8.021-1.707 2.162-3.812 3.243-6.315 3.243-2.958 0-6.485-.967-10.581-2.902-2.731-1.251-5.177-2.161-7.339-2.73-2.048-.683-4.494-1.024-7.338-1.024-2.845 0-5.063.455-6.656 1.365-1.593.796-2.39 1.991-2.39 3.584 0 1.82 1.081 3.243 3.243 4.267 2.276 1.024 6.713 2.161 13.312 3.413 11.036 1.934 18.83 4.892 23.381 8.875 4.551 3.868 6.827 9.5 6.827 16.896 0 8.305-3.47 14.961-10.411 19.968-6.826 4.892-16.042 7.338-27.648 7.338zm99.388-22.016c7.623.455 11.435 3.869 11.435 10.24 0 3.983-1.536 6.941-4.608 8.875-3.072 1.934-7.452 2.731-13.141 2.389l-4.779-.341c-10.24-.796-18.034-3.868-23.381-9.216-5.234-5.461-7.851-13.028-7.851-22.699v-30.208h-4.949c-9.103 0-13.654-3.754-13.654-11.264 0-7.395 4.551-11.093 13.654-11.093h4.949v-11.093c0-4.324 1.365-7.737 4.096-10.24 2.731-2.617 6.428-3.926 11.093-3.926s8.363 1.309 11.094 3.926c2.73 2.503 4.096 5.916 4.096 10.24v11.093h9.386c9.103 0 13.654 3.698 13.654 11.093 0 7.51-4.551 11.264-13.654 11.264h-9.386v32.768c0 2.162.625 3.983 1.877 5.462 1.365 1.479 3.072 2.275 5.12 2.389l4.949.341z"/>
    <path fill="#40B3E1"
          d="M490.532 125.984c10.012 0 17.465 3.015 22.357 9.045 4.893 5.917 7.339 14.962 7.339 27.136v36.864c0 4.324-1.365 7.737-4.096 10.24s-6.428 3.755-11.093 3.755-8.363-1.252-11.094-3.755c-2.73-2.503-4.096-5.916-4.096-10.24v-35.498c0-5.007-.91-8.647-2.73-10.923-1.707-2.276-4.324-3.413-7.851-3.413-4.551 0-8.192 1.479-10.923 4.437-2.617 2.844-3.925 6.713-3.925 11.605v33.792c0 4.324-1.365 7.737-4.096 10.24s-6.428 3.755-11.093 3.755-8.363-1.252-11.094-3.755c-2.73-2.503-4.096-5.916-4.096-10.24v-59.05c0-3.983 1.423-7.225 4.267-9.728 2.844-2.617 6.542-3.926 11.093-3.926 4.324 0 7.737 1.195 10.24 3.584 2.617 2.39 3.926 5.519 3.926 9.387 2.958-4.324 6.769-7.623 11.434-9.899 4.665-2.275 9.842-3.413 15.531-3.413zm115.109 59.051c2.617 0 4.722 1.024 6.315 3.072 1.707 2.048 2.56 4.721 2.56 8.021 0 4.551-2.219 8.021-6.656 10.411-3.868 1.934-8.476 3.584-13.824 4.949-5.234 1.252-10.069 1.877-14.507 1.877-9.329 0-17.465-1.763-24.405-5.29-6.94-3.527-12.288-8.591-16.043-15.19-3.754-6.599-5.632-14.336-5.632-23.21 0-8.42 1.764-15.929 5.291-22.528 3.641-6.713 8.647-11.89 15.019-15.531 6.485-3.755 13.767-5.632 21.845-5.632 7.851 0 14.734 1.707 20.651 5.12 5.916 3.413 10.467 8.249 13.653 14.507 3.3 6.257 4.949 13.596 4.949 22.016 0 2.617-.625 4.665-1.877 6.144-1.138 1.365-2.844 2.048-5.12 2.048h-45.056c.796 5.461 2.56 9.386 5.291 11.776 2.73 2.389 6.769 3.584 12.117 3.584 2.844 0 5.461-.285 7.851-.854 2.389-.682 5.063-1.593 8.021-2.73a51.216 51.216 0 014.949-1.707c1.707-.569 3.243-.853 4.608-.853zm-29.184-38.571c-3.982 0-7.168 1.308-9.557 3.925-2.389 2.503-3.812 6.201-4.267 11.094h26.795c-.683-10.013-5.006-15.019-12.971-15.019zm85.36 66.901c-7.623 0-14.051-.569-19.285-1.706-5.234-1.138-9.842-2.959-13.824-5.462-1.593-.796-2.844-2.161-3.755-4.096-.91-1.934-1.365-4.096-1.365-6.485 0-3.072.796-5.575 2.389-7.509 1.707-2.048 3.812-3.072 6.315-3.072 1.707 0 3.3.227 4.779.682 1.479.342 3.299.967 5.461 1.878 3.641 1.251 6.827 2.218 9.557 2.901 2.845.683 6.429 1.024 10.752 1.024 3.072 0 5.462-.398 7.168-1.195 1.821-.91 2.731-2.161 2.731-3.754 0-1.252-.455-2.219-1.365-2.902-.797-.682-2.39-1.308-4.779-1.877-2.389-.683-6.428-1.593-12.117-2.731-10.127-1.934-17.465-4.835-22.016-8.704-4.438-3.982-6.656-9.557-6.656-16.725 0-5.234 1.593-9.956 4.778-14.165 3.3-4.21 7.794-7.51 13.483-9.899 5.689-2.389 12.06-3.584 19.115-3.584 5.12 0 10.069.626 14.848 1.877 4.892 1.252 9.216 3.015 12.97 5.291 3.527 2.048 5.291 5.348 5.291 9.899 0 3.185-.853 5.859-2.56 8.021-1.707 2.162-3.812 3.243-6.315 3.243-2.958 0-6.485-.967-10.581-2.902-2.731-1.251-5.177-2.161-7.339-2.73-2.048-.683-4.494-1.024-7.338-1.024-2.845 0-5.063.455-6.656 1.365-1.593.796-2.39 1.991-2.39 3.584 0 1.82 1.081 3.243 3.243 4.267 2.276 1.024 6.713 2.161 13.312 3.413 11.036 1.934 18.83 4.892 23.381 8.875 4.551 3.868 6.827 9.5 6.827 16.896 0 8.305-3.47 14.961-10.411 19.968-6.826 4.892-16.042 7.338-27.648 7.338zm99.388-22.016c7.623.455 11.435 3.869 11.435 10.24 0 3.983-1.536 6.941-4.608 8.875-3.072 1.934-7.452 2.731-13.141 2.389l-4.779-.341c-10.24-.796-18.034-3.868-23.381-9.216-5.234-5.461-7.851-13.028-7.851-22.699v-30.208h-4.949c-9.103 0-13.654-3.754-13.654-11.264 0-7.395 4.551-11.093 13.654-11.093h4.949v-11.093c0-4.324 1.365-7.737 4.096-10.24 2.731-2.617 6.428-3.926 11.093-3.926s8.363 1.309 11.094 3.926c2.73 2.503 4.096 5.916 4.096 10.24v11.093h9.386c9.103 0 13.654 3.698 13.654 11.093 0 7.51-4.551 11.264-13.654 11.264h-9.386v32.768c0 2.162.625 3.983 1.877 5.462 1.365 1.479 3.072 2.275 5.12 2.389l4.949.341z"/>
</svg>
